<?xml version="1.0" encoding="UTF-8" standalone="no"?>
<!-- Created with Inkscape (http://www.inkscape.org/) -->

<svg
   xmlns:dc="http://purl.org/dc/elements/1.1/"
   xmlns:cc="http://creativecommons.org/ns#"
   xmlns:rdf="http://www.w3.org/1999/02/22-rdf-syntax-ns#"
   xmlns:svg="http://www.w3.org/2000/svg"
   xmlns="http://www.w3.org/2000/svg"
   xmlns:xlink="http://www.w3.org/1999/xlink"
   xmlns:sodipodi="http://sodipodi.sourceforge.net/DTD/sodipodi-0.dtd"
   xmlns:inkscape="http://www.inkscape.org/namespaces/inkscape"
   width="12in"
   height="12in"
   viewBox="0 0 1080 1080"
   id="svg2"
   version="1.1"
   inkscape:version="0.91 r13725"
   sodipodi:docname="avatar.svg"
   inkscape:export-filename="C:\xampp\htdocs\user\pages\01.home\avatar.png"
   inkscape:export-xdpi="21.33"
   inkscape:export-ydpi="21.33">
  <defs
     id="defs4">
    <linearGradient
       id="linearGradient4209"
       inkscape:collect="always">
      <stop
         id="stop4211"
         offset="0"
         style="stop-color:#2b4a66;stop-opacity:1" />
      <stop
         id="stop4213"
         offset="1"
         style="stop-color:#ffffff;stop-opacity:1" />
    </linearGradient>
    <linearGradient
       inkscape:collect="always"
       id="linearGradient4276">
      <stop
         style="stop-color:#2b4a66;stop-opacity:1"
         offset="0"
         id="stop4278" />
      <stop
         style="stop-color:#ffffff;stop-opacity:1"
         offset="1"
         id="stop4280" />
    </linearGradient>
    <linearGradient
       inkscape:collect="always"
       xlink:href="#linearGradient4276"
       id="linearGradient4296"
       x1="503.08121"
       y1="504.44559"
       x2="721.99451"
       y2="626.04523"
       gradientUnits="userSpaceOnUse"
       gradientTransform="translate(165,-16.428622)" />
    <linearGradient
       inkscape:collect="always"
       xlink:href="#linearGradient4209"
       id="linearGradient4207"
       x1="535.39343"
       y1="542.45978"
       x2="371.10693"
       y2="722.26697"
       gradientUnits="userSpaceOnUse" />
  </defs>
  <sodipodi:namedview
     id="base"
     pagecolor="#ffffff"
     bordercolor="#666666"
     borderopacity="1.0"
     inkscape:pageopacity="0.0"
     inkscape:pageshadow="2"
     inkscape:zoom="0.7"
     inkscape:cx="394.00187"
     inkscape:cy="537.21956"
     inkscape:document-units="px"
     inkscape:current-layer="layer1"
     showgrid="false"
     inkscape:window-width="1920"
     inkscape:window-height="1137"
     inkscape:window-x="3832"
     inkscape:window-y="381"
     inkscape:window-maximized="1"
     showguides="false"
     units="in" />
  <metadata
     id="metadata7">
    <rdf:RDF>
      <cc:Work
         rdf:about="">
        <dc:format>image/svg+xml</dc:format>
        <dc:type
           rdf:resource="http://purl.org/dc/dcmitype/StillImage" />
        <dc:title />
      </cc:Work>
    </rdf:RDF>
  </metadata>
  <g
     inkscape:groupmode="layer"
     id="layer6"
     inkscape:label="background"
     transform="translate(0,27.637855)"
     style="display:none"
     sodipodi:insensitive="true">
    <rect
       style="fill:#ddff55;fill-rule:evenodd;stroke:#000000;stroke-width:1px;stroke-linecap:butt;stroke-linejoin:miter;stroke-opacity:1"
       id="rect3432"
       width="1088.9445"
       height="1088.9445"
       x="8.0812597"
       y="-38.602592" />
  </g>
  <g
     inkscape:groupmode="layer"
     id="layer4"
     inkscape:label="wings"
     transform="translate(0,27.637855)"
     style="display:inline"
     sodipodi:insensitive="true">
    <path
       style="display:inline;opacity:1;fill:url(#linearGradient4207);fill-opacity:1;fill-rule:nonzero;stroke:none;stroke-width:1px;stroke-linecap:butt;stroke-linejoin:miter;stroke-opacity:1"
       d="m 203.57143,446.64787 257.14286,61.42857 c 32.71992,35.4366 56.38383,74.82242 118.57143,90 l 10,45.71429 c -48.74236,36.91662 -33.28197,86.58236 24.2857,62.14285 24.1228,22.66361 32.31123,63.05008 26.42858,71.60715 -39.83679,21.72329 -32.59282,1.79187 -72.86838,3.81306 -70.93721,-6.22361 -94.8687,-2.79289 -87.82277,-25.01986 -42.18812,22.56912 -72.64097,-14.13771 8.79572,-35.27083 -93.95509,23.82086 -81.29701,5.15614 -69.10749,-22.45688 -101.07115,40.46274 -40.401,-41.03935 -20.84385,-25.68697 -73.14449,-6.49883 -77.89714,-11.29561 -43.838,-43.79993 -88.75003,-0.71838 -102.77881,-11.95429 -44.77741,-37.05043 -97.3192,-27.54412 -67.91628,-35.05685 -49.31909,-49.5522 -70.54009,-33.91858 -29.59988,-28.64573 -41.77676,-44.4022 -13.49283,-17.45925 -19.45801,-14.99941 -14.87054,-51.46662 z"
       id="path4208"
       inkscape:connector-curvature="0"
       sodipodi:nodetypes="cccccccccccccccc" />
    <path
       style="display:inline;opacity:1;fill:url(#linearGradient4296);fill-opacity:1;fill-rule:evenodd;stroke:none;stroke-width:1px;stroke-linecap:butt;stroke-linejoin:miter;stroke-opacity:1"
       d="M 648.57143,586.64787 C 656.33382,548.79073 661.88111,510.93358 655,473.07644 l 32.85714,-39.28571 c 54.89596,3.17738 110.93131,-59.73012 166.42857,-91.42857 10.1741,-1.13936 7.18893,19.75165 19.10751,33.08108 -10.49743,10.71642 -22.50603,16.57466 -5.46917,34.75328 -15.41371,24.82251 -13.62928,27.44837 -8.22762,38.57511 -21.65422,26.72848 -19.57132,30.88877 -18.48494,39.30273 -4.19867,9.93013 -31.59433,31.58964 -33.36238,42.37262 29.18176,23.71494 25.63543,53.59287 -14.84765,90.56441 -8.30248,14.7223 -6.84627,49.10327 -9.40845,74.19577 -15.8185,8.86363 -31.25203,25.1049 -41.15429,37.86928 -13.72437,-17.07071 -30.72637,-58.35238 -33.84652,-102.79988 -52.36996,0.17404 -60.02077,-43.62869 -60.02077,-43.62869 z"
       id="path4288"
       inkscape:connector-curvature="0"
       sodipodi:nodetypes="cccccccccccccc" />
  </g>
  <g
     inkscape:groupmode="layer"
     id="layer3"
     inkscape:label="eyeglass"
     transform="translate(0,27.637855)"
     style="display:inline"
     sodipodi:insensitive="true">
    <path
       style="display:inline;fill:#e3dbdb;fill-opacity:1;fill-rule:evenodd;stroke:none;stroke-width:1px;stroke-linecap:butt;stroke-linejoin:miter;stroke-opacity:1"
       d="m 770.53462,291.28034 -11.78572,162.8571 65,4.2857 11.13271,-8.1784 26.36729,-155.0359 z"
       id="path4211"
       inkscape:connector-curvature="0"
       sodipodi:nodetypes="cccccc" />
    <path
       style="display:inline;fill:#e3dbdb;fill-opacity:1;fill-rule:evenodd;stroke:none;stroke-width:1px;stroke-linecap:butt;stroke-linejoin:miter;stroke-opacity:1"
       d="m 769.46357,461.54774 c -3.06018,20.6709 -11.72599,80.6567 -16.9383,111.272 -2.33152,13.6945 34.12743,1.0728 42.14187,-4.3304 l 16.26577,-107.8113 z"
       id="path4211-2"
       inkscape:connector-curvature="0"
       sodipodi:nodetypes="csccc" />
    <path
       style="display:inline;fill:#e3dbdb;fill-opacity:1;fill-rule:evenodd;stroke:none;stroke-width:1px;stroke-linecap:butt;stroke-linejoin:miter;stroke-opacity:1"
       d="m 760.21507,589.72284 c 3.75738,12.5895 13.59293,15.9649 20.40535,11.9873 6.68248,-3.9018 13.10409,-11.1298 -0.40175,-23.211 -14.2497,1.0354 -15.01018,1.5518 -20.0036,11.2237 z"
       id="path4211-2-9"
       inkscape:connector-curvature="0"
       sodipodi:nodetypes="cccc" />
    <path
       style="display:inline;fill:#e3dbdb;fill-opacity:1;fill-rule:evenodd;stroke:none;stroke-width:1px;stroke-linecap:butt;stroke-linejoin:miter;stroke-opacity:1"
       d="m 752.39816,682.94844 c 3.75738,12.5895 13.59293,15.9649 20.40535,11.9873 6.68248,-3.9017 13.10409,-11.1298 -0.40175,-23.211 -14.2497,1.0354 -15.01018,1.5518 -20.0036,11.2237 z"
       id="path4211-2-9-9"
       inkscape:connector-curvature="0"
       sodipodi:nodetypes="cccc" />
    <path
       style="display:inline;opacity:0.97100004;fill:#0000ff;fill-opacity:1;fill-rule:evenodd;stroke:none;stroke-width:1px;stroke-linecap:butt;stroke-linejoin:miter;stroke-opacity:1"
       d="m 782.02354,243.18804 c 36.20381,-9.5844 60.28325,7.5599 81.82235,30.3045 -3.5824,11.5699 -14.32624,15.9784 -27.27412,18.1828 -54.12845,-7.1085 -89.2878,-18.9948 -54.54823,-48.4873 z"
       id="path4203"
       inkscape:connector-curvature="0"
       sodipodi:nodetypes="cccc" />
  </g>
  <g
     inkscape:groupmode="layer"
     id="layer5"
     inkscape:label="body"
     style="display:inline"
     transform="translate(0,27.637855)"
     sodipodi:insensitive="true">
    <path
       style="fill:#552200;fill-opacity:1;fill-rule:evenodd;stroke:none;stroke-width:1px;stroke-linecap:butt;stroke-linejoin:miter;stroke-opacity:1"
       d="m 442.49609,326.09226 65.65991,-31.81981 75.76144,-6.81853 -20.45559,33.0825 -60.60915,30.55711 z"
       id="path4303"
       inkscape:connector-curvature="0" />
    <g
       transform="translate(-1.0789952,-1.2605864)"
       style="display:inline"
       id="g4215">
      <path
         sodipodi:nodetypes="ccccc"
         inkscape:connector-curvature="0"
         id="path4205"
         d="m 623.60926,701.06802 c 26.33098,-12.26239 55.18695,-28.06746 82.8325,-16.66752 l 69.19545,99.50002 -109.60155,62.62946 z"
         style="display:inline;fill:#8b2c19;fill-opacity:1;fill-rule:evenodd;stroke:none;stroke-width:1px;stroke-linecap:butt;stroke-linejoin:miter;stroke-opacity:1" />
      <path
         sodipodi:nodetypes="ccccc"
         inkscape:connector-curvature="0"
         id="path4207"
         d="M 585.71429,713.79073 C 561.02641,700.64441 554.10504,681.41586 582.14286,650.2193 621.55349,639.73598 660.10795,627.39764 705,628.79073 l 7.14286,47.14285 z"
         style="display:inline;fill:#8b2c19;fill-opacity:1;fill-rule:evenodd;stroke:none;stroke-width:1px;stroke-linecap:butt;stroke-linejoin:miter;stroke-opacity:1" />
      <path
         sodipodi:nodetypes="ccccc"
         inkscape:connector-curvature="0"
         id="path4209"
         d="m 593.57143,640.2193 -6.42857,-31.42857 c 8.41583,-16.45923 28.43782,-20.48329 50,-22.85715 l 37.14285,40 z"
         style="display:inline;fill:#8b2c19;fill-opacity:1;fill-rule:evenodd;stroke:none;stroke-width:1px;stroke-linecap:butt;stroke-linejoin:miter;stroke-opacity:1" />
    </g>
    <path
       style="display:inline;opacity:0.97100004;fill:#ffccaa;fill-opacity:1;fill-rule:evenodd;stroke:none;stroke-width:1px;stroke-linecap:butt;stroke-linejoin:miter;stroke-opacity:1"
       d="m 717.38882,652.36685 c 2.24937,-22.7455 11.25021,-41.5195 18.92852,-61.0715 10.1218,-0.9112 5.767,20.1418 7.1429,32.5 9.6281,-7.9741 16.7467,-18.2595 38.5714,-15 l 7.2834,20.3101 -19.1706,20.2204 c 8.4671,2.3561 13.5164,3.8252 18.7088,9.78339 -3.0467,4.817 -6.8654,8.4762 -11.9299,10.26671 -44.86734,-6.9412 -41.0165,9.70729 -57.39166,16.56229 z"
       id="path4299"
       inkscape:connector-curvature="0"
       sodipodi:nodetypes="cccccccccc" />
    <path
       style="display:inline;opacity:0.97100004;fill:#ffccaa;fill-rule:evenodd;stroke:none;stroke-width:1px;stroke-linecap:butt;stroke-linejoin:miter;stroke-opacity:1"
       d="m 415.52921,352.06494 c 2.15397,-28.66628 61.81371,-2.632 98.99495,2.0203 30.23774,-37.65064 93.93904,-62.20687 167.68532,-82.83247 l 3.03046,14.14213 -12.12184,24.24366 -15.15228,-13.13198 -56.78211,26.31473 22.43692,51.46703 c 11.95715,-5.8268 30.02209,-69.34438 140.91631,-44.9518 17.4686,55.6303 -12.804,71.50261 -30.80968,95.45941 -36.29129,10.2245 -67.23541,5.0758 -100.06638,5.3519 6.84852,3.6548 13.71742,7.2036 18.24402,22.9324 -54.2492,20.9896 -87.79708,-5.0014 -124.24876,-32.3249 9.48763,52.8966 28.72602,65.9037 48.48732,76.7716 l 56.56854,5.0508 c -14.25115,33.0956 -16.13829,61.3094 -7.57614,82.3274 -51.66936,-44.1162 -129.35143,-128.8662 -177.46009,-177.7427 -53.9138,-27.55461 -61.40696,-46.95661 -32.14656,-55.09751 z"
       id="path4301"
       inkscape:connector-curvature="0"
       sodipodi:nodetypes="cccccccccccccccccc" />
    <path
       style="fill:#ffffff;fill-opacity:1;fill-rule:evenodd;stroke:none;stroke-width:1px;stroke-linecap:butt;stroke-linejoin:miter;stroke-opacity:1"
       d="m 596.78571,320.57643 25,48.21429 49.64286,-45 -16.78572,-29.28572 z"
       id="path4260"
       inkscape:connector-curvature="0" />
    <path
       style="fill:#ffffff;fill-opacity:1;fill-rule:evenodd;stroke:none;stroke-width:1px;stroke-linecap:butt;stroke-linejoin:miter;stroke-opacity:1"
       d="m 677.14285,289.14787 14.64286,36.78571 33.92857,-15 -16.78571,-46.42857 z"
       id="path4262"
       inkscape:connector-curvature="0" />
    <path
       style="fill:#ffffff;fill-opacity:1;fill-rule:evenodd;stroke:none;stroke-width:1px;stroke-linecap:butt;stroke-linejoin:miter;stroke-opacity:1"
       d="m 533.36054,430.61325 c 32.38212,17.5441 62.97778,39.25664 103.03556,38.89087 l -7.57614,30.80966 -57.5787,-4.04061 c -23.94129,-16.9366 -35.4779,-39.30024 -37.88072,-65.65992 z"
       id="path4264"
       inkscape:connector-curvature="0"
       sodipodi:nodetypes="ccccc" />
    <path
       style="fill:#000000;fill-opacity:1;fill-rule:evenodd;stroke:none;stroke-width:1px;stroke-linecap:butt;stroke-linejoin:miter;stroke-opacity:1"
       d="m 665.69052,849.32149 112.12693,-76.77159 28.28428,23.23351 -136.3706,87.88327 z"
       id="path4266"
       inkscape:connector-curvature="0" />
    <path
       style="fill:#000000;fill-opacity:1;fill-rule:evenodd;stroke:none;stroke-width:1px;stroke-linecap:butt;stroke-linejoin:miter;stroke-opacity:1"
       d="m 636.39609,967.50934 23.23352,35.35526 -23.23352,7.0711 z"
       id="path4268"
       inkscape:connector-curvature="0" />
  </g>
  <g
     inkscape:groupmode="layer"
     id="layer8"
     inkscape:label="helmet"
     style="display:inline"
     sodipodi:insensitive="true">
    <path
       style="display:inline;opacity:0.97100004;fill:#ac9d93;fill-rule:evenodd;stroke:none;stroke-width:1px;stroke-linecap:butt;stroke-linejoin:miter;stroke-opacity:1"
       d="m 385.87106,312.98892 c 24.18273,-14.58956 73.27994,-27.38736 25,-86.42858 11.02607,-29.7584 162.85577,-134.277786 257.85714,60.00002 -65.83035,0.33222 -235.5853,47.10413 -262.14285,101.42853 -11.39098,23.3007 -16.38327,-56.8467 -20.71429,-74.99997 z"
       id="path4185"
       inkscape:connector-curvature="0"
       sodipodi:nodetypes="cccsc" />
    <path
       style="fill:#ffffff;fill-opacity:1;fill-rule:evenodd;stroke:none;stroke-width:1px;stroke-linecap:butt;stroke-linejoin:miter;stroke-opacity:1"
       d="M 381.42857,310 C 330.69027,216.80939 332.10263,158.38588 325,94.28572 357.53674,147.53094 391.30067,237.59176 422.14285,240 c 30.86955,59.83842 -24.30842,48.99495 -40.71428,70 z"
       id="path4252"
       inkscape:connector-curvature="0"
       sodipodi:nodetypes="cccc" />
    <path
       style="fill:#ffffff;fill-rule:evenodd;stroke:none;stroke-width:1px;stroke-linecap:butt;stroke-linejoin:miter;stroke-opacity:1"
       d="m 569.28571,175.71429 c 19.59808,-11.1759 20.45647,-66.07775 23.57143,-115.714284 25.07234,38.929144 41.07723,90.413204 41.42857,163.571424 z"
       id="path4254"
       inkscape:connector-curvature="0"
       sodipodi:nodetypes="cccc" />
    <path
       style="fill:none;fill-rule:evenodd;stroke:#000000;stroke-width:5.0999999;stroke-linecap:butt;stroke-linejoin:miter;stroke-miterlimit:4;stroke-dasharray:none;stroke-opacity:1"
       d="m 595.71429,105.00001 c -5.46375,41.31309 -15.7489,45.30481 -27.14286,69.28571"
       id="path4256"
       inkscape:connector-curvature="0"
       sodipodi:nodetypes="cc" />
  </g>
  <g
     inkscape:label="sketch"
     inkscape:groupmode="layer"
     id="layer1"
     style="display:inline"
     transform="translate(0,27.637855)"
     sodipodi:insensitive="true">
    <path
       style="opacity:0.97100004;fill:#000000"
       d="m 648.46752,1030.1658 c -11.93115,-11.9312 -31.05667,-57.3137 -31.06012,-73.7019 -0.007,-30.84633 24.3984,-29.67401 40.75587,1.95775 3.48765,6.74443 9.54548,11.65177 14.38339,11.65177 4.59693,0 8.35804,-1.04714 8.35804,-2.32693 0,-4.9257 -14.11236,-29.57173 -18.57471,-32.43915 -2.6423,-1.69792 -4.92338,-16.49771 -5.21992,-33.86702 -0.52796,-30.92312 -7.06178,-89.34943 -12.34679,-110.40675 -2.72621,-10.8618 -3.21971,-11.02758 -14.87925,-4.99821 -15.92578,8.23555 -26.62895,7.87459 -34.75875,-1.17217 -6.13539,-6.82738 -5.52284,-8.55446 7.8106,-22.02146 7.95751,-8.03717 14.46816,-13.04272 14.46816,-11.12343 0,1.9193 2.85754,1.11808 6.35007,-1.78046 11.99958,-9.95877 6.26519,2.12874 -8.29812,17.49163 -8.01613,8.45621 -13.39717,16.55253 -11.95788,17.99185 5.10149,5.10143 17.14393,2.50172 28.01225,-6.04729 l 11.01475,-8.6642 -8.60776,-22.02778 c -9.68389,-24.78161 -20.74669,-39.42074 -20.74669,-27.45359 0,3.83456 -3.81003,8.18118 -8.46674,9.65917 -4.65673,1.478 -8.46676,4.32825 -8.46676,6.33395 0,2.00565 -6.73974,10.79288 -14.97721,19.52718 -8.23755,8.73423 -14.01238,18.39496 -12.83304,21.4683 1.17937,3.0733 0.52123,5.58778 -1.4625,5.58778 -1.98372,0 -4.61574,-3.85823 -5.84886,-8.57376 -1.67334,-6.39884 4.10796,-14.88457 22.78981,-33.4508 13.76755,-13.68234 24.97135,-27.44562 24.89731,-30.58496 -0.0941,-3.98021 -1.83691,-3.46548 -5.75844,1.70047 -6.92541,9.12305 -20.88332,9.60208 -28.0533,0.96277 -3.29727,-3.97301 -8.61378,-5.40959 -13.85883,-3.74484 -6.78027,2.15198 -7.94642,1.2335 -5.7387,-4.51983 4.13544,-10.77668 -0.79364,-15.42998 -10.15302,-9.58491 -11.20625,6.99842 -10.40899,10.92385 3.37128,16.59955 10.27209,4.23073 10.6583,5.02359 3.28247,6.73879 -4.59758,1.06918 -15.04119,6.48441 -23.20792,12.03386 -8.16675,5.54946 -17.74021,10.06182 -21.27434,10.02751 -6.1004,-0.0593 0.058,-4.47067 24.26629,-17.38302 11.27891,-6.01596 12.02289,-10.36971 2.66667,-15.60571 -4.76696,-2.66771 -12.57619,-0.79798 -25.60804,6.13108 -10.31228,5.4831 -27.70492,12.12127 -38.65037,14.75145 -21.00999,5.04872 -30.4842,13.02916 -30.4842,25.67783 0,11.07005 19.25865,9.9179 31.21527,-1.86746 5.31495,-5.23879 13.55699,-9.65013 18.31568,-9.80297 8.09608,-0.26011 8.28966,0.58958 3.012,13.22076 -6.73825,16.12697 -4.77431,18.80745 13.77994,18.80745 9.16363,0 14.11127,-2.04469 14.11127,-5.83174 0,-3.2074 2.83498,-8.18451 6.29997,-11.06019 5.09818,-4.23114 6.79403,-3.94102 8.88992,1.52077 1.95508,5.09482 4.49359,5.73057 10.35525,2.5935 4.27087,-2.28571 10.27176,-4.1059 13.33531,-4.04484 3.0635,0.061 -2.05008,3.88428 -11.3635,8.49608 -15.30559,7.57893 -15.71257,8.16636 -4.23338,6.11046 9.50694,-1.70269 11.10351,-1.18532 6.35007,2.0579 -3.49255,2.38288 -12.06514,4.02554 -19.05019,3.65042 -6.98508,-0.37508 -16.73483,0.63917 -21.66609,2.25399 -11.64684,3.81393 -31.25112,-3.70861 -31.25112,-11.99163 0,-7.6526 -0.38877,-7.70702 -15.10039,-2.11365 -16.52295,6.282 -27.22488,1.56009 -27.27643,-12.03491 -0.0351,-9.27371 -3.23114,-12.69613 -17.42631,-18.66097 -12.51281,-5.25789 -16.65213,-9.11276 -14.77378,-13.75847 1.43522,-3.54971 3.77947,-9.34706 5.20941,-12.88302 2.17531,-5.37905 0.74757,-5.72476 -8.74233,-2.11667 -6.23828,2.37177 -13.59954,4.15808 -16.35842,3.96961 -7.7502,-0.52945 27.77631,-16.35411 36.99725,-16.47979 7.63026,-0.10424 7.53893,0.53554 -1.44149,10.09478 -13.98942,14.89105 -10.2951,26.03404 8.21783,24.787 8.09104,-0.545 18.32714,-1.11843 22.74695,-1.27422 4.41981,-0.15584 13.52459,-3.12146 20.23286,-6.59046 6.70827,-3.46899 14.04594,-5.16448 16.30593,-3.7677 2.25997,1.39674 4.10904,0.99505 4.10904,-0.89264 0,-1.88763 9.04886,-8.06237 20.10854,-13.72152 28.98356,-14.83066 46.20654,-28.26326 48.76041,-38.0293 2.13239,-8.1543 1.34682,-8.07236 -18.36307,1.91542 -11.32492,5.73877 -23.62407,10.43413 -27.33142,10.43413 -3.70736,0 -5.69099,1.69838 -4.40807,3.77417 2.55615,4.13594 -22.84916,8.27059 -32.02492,5.212 -3.14448,-1.04819 0.61994,-4.0395 8.3654,-6.64735 l 14.08268,-4.74159 -8.07661,-9.97425 -8.07663,-9.97417 -32.32745,7.19216 c -17.78013,3.9557 -36.21601,7.4851 -40.96864,7.8431 -4.75262,0.35804 -8.64112,2.15055 -8.64112,3.98341 0,1.83288 -2.56486,3.33252 -5.69965,3.33252 -3.13483,0 -11.88581,3.08606 -19.44664,6.85789 -11.1389,5.55684 -13.36993,8.83034 -11.75955,17.2545 1.09308,5.71814 0.38317,8.79232 -1.57763,6.83152 -1.96076,-1.96076 -4.05543,-10.00056 -4.65474,-17.8662 -0.89155,-11.70041 -3.61203,-15.35507 -14.95948,-20.09633 -16.14803,-6.74705 -17.23861,-12.957 -5.00649,-28.50762 l 8.86324,-11.26779 -16.92183,2.70595 c -20.46959,3.2732 -60.07191,-8.44749 -60.07191,-17.77887 0,-3.38396 6.66757,-10.08658 14.81681,-14.89475 8.14925,-4.8082 14.81683,-9.10128 14.81683,-9.54023 0,-0.43891 -5.51911,-1.21858 -12.26467,-1.73258 -35.4784,-2.70336 -67.32113,-33.29103 -42.76922,-41.08348 9.99676,-3.17284 11.33166,-10.58345 1.90644,-10.58345 -10.19777,0 -30.22517,-11.63414 -33.15053,-19.25746 -1.45001,-3.77875 -0.92797,-9.92335 1.16018,-13.65463 2.78044,-4.96837 1.07681,-8.9236 -6.36524,-14.77747 -8.25488,-6.49329 -10.0289,-11.5074 -9.45354,-26.71901 0.64879,-17.15325 1.62826,-18.72148 11.66371,-18.67553 13.92401,0.0641 123.14587,25.58582 179.55374,41.95663 23.68876,6.87497 51.04384,13.71775 60.78903,15.20611 12.7363,1.94527 19.78985,5.86743 25.08489,13.94875 14.75142,22.5135 46.01643,47.93012 85.82893,69.77383 15.94477,8.74836 34.35264,6.77577 34.35264,-3.68127 0,-3.76723 2.01891,-5.27147 4.78256,-3.56342 2.92912,1.81026 3.95448,0.6766 2.64587,-2.92519 -1.1752,-3.23454 -4.42145,-5.35757 -7.21392,-4.71776 -2.79248,0.63975 -3.87205,-0.78672 -2.39914,-3.17005 1.47295,-2.38325 -9.28778,-15.28933 -23.91276,-28.68014 -14.62489,-13.39085 -55.21761,-52.55287 -90.20593,-87.02675 -41.11248,-40.50796 -67.73324,-63.53171 -75.25698,-65.0882 -6.40296,-1.32457 -11.64178,-3.51583 -11.64178,-4.86943 0,-1.35356 -3.14754,-21.59442 -6.99453,-44.97963 -4.57848,-27.83164 -11.94523,-53.17056 -21.32672,-73.35615 -7.88269,-16.9607 -13.38719,-32.36667 -12.23219,-34.23546 1.15495,-1.8688 -1.12372,-7.99461 -5.06373,-13.61284 -3.94006,-5.61826 -7.58226,-16.7155 -8.09382,-24.6606 -0.51155,-7.94506 -2.44722,-15.56514 -4.30151,-16.9335 -1.85431,-1.36834 -3.74523,-6.29795 -4.20201,-10.95467 -0.4568,-4.65671 -2.76414,-20.84938 -5.12744,-35.98371 -7.19732,-46.091383 -10.09552,-115.432066 -5.30819,-127.001308 3.5292,-8.5286932 4.43154,-3.665789 4.64779,25.047469 0.1476,19.59702 1.49681,34.402416 2.99833,32.900928 1.50151,-1.501489 8.75866,11.039865 16.12704,27.869739 20.5041,46.832832 40.02878,84.319022 51.10794,98.124232 l 10.02416,12.4906 16.71327,-18.9873 c 14.0631,-15.97654 21.65029,-20.45429 47.84799,-28.23876 38.73228,-11.50901 74.77162,-15.4508 82.5143,-9.02492 3.14922,2.61369 9.54874,3.75241 14.22103,2.53057 4.67233,-1.22183 7.42761,-0.49416 6.12278,1.61705 -1.30483,2.11123 0.50117,3.83858 4.01325,3.83858 3.51208,0 15.45708,8.56918 26.54442,19.04262 17.17575,16.22481 20.72879,18.02416 24.01053,12.15996 6.62032,-11.82985 0.80674,-69.57654 -9.1911,-91.295932 -5.03216,-10.931972 -9.14937,-21.521708 -9.14937,-23.532804 0,-2.011063 -2.72572,-7.354391 -6.05713,-11.874054 -5.51995,-7.488697 -5.85358,-6.678701 -3.76205,9.132748 1.52097,11.498164 0.0661,21.49341 -4.31421,29.63364 l -6.60932,12.283372 2.26187,-21.166889 c 1.98692,-18.593287 -0.22453,-33.506866 -13.33896,-89.9592552 -1.21707,-5.2387768 -0.31937,-9.5250958 1.99464,-9.5250958 5.84453,0 17.12502,22.91723 17.12502,34.790762 0,5.396032 4.988,17.15148 11.0845,26.123257 16.07426,23.655408 24.31682,58.298121 24.91277,104.706151 0.52177,40.62839 0.56701,40.79224 17.1883,62.28259 24.85555,32.13676 33.53563,44.68191 34.16867,49.38343 0.3136,2.32836 0.78977,5.71106 1.05834,7.51712 0.26856,1.80606 6.38044,0.23672 13.58187,-3.48718 7.20144,-3.72402 13.64805,-6.15422 14.32578,-5.40044 5.87785,6.53739 19.29907,46.3847 16.91978,50.23446 -5.62153,9.09587 18.4939,-9.11412 24.78502,-18.71559 3.46809,-5.29293 5.2618,-14.45007 4.06097,-20.73178 -1.65426,-8.65374 0.94218,-14.34444 11.24605,-24.64828 12.75429,-12.75429 14.52394,-13.26438 36.89544,-10.63509 26.64416,3.13151 36.70033,7.46013 53.30021,22.9427 13.28077,12.38685 14.08922,19.95451 5.24593,49.10568 -7.92739,26.13174 -7.91882,32.13587 0.0457,32.13587 7.12154,0 8.17893,7.48795 2.35691,16.68983 -2.65205,4.19159 -1.63815,7.73366 3.2334,11.29584 6.54831,4.78824 6.36269,6.18256 -2.40135,18.03655 -8.62893,11.67124 -8.85402,13.20767 -2.45946,16.78625 6.44121,3.6047 6.27187,5.23913 -1.99426,19.24919 -4.96821,8.42046 -7.19236,15.31 -4.94251,15.31 7.78653,0 4.04828,15.49734 -6.01976,24.95586 -6.46894,6.07727 -9.32658,12.49546 -7.93413,17.82021 1.54047,5.89083 -2.92625,13.17592 -15.28991,24.93715 -19.55149,18.59892 -22.1117,28.4058 -7.94103,30.41835 7.99586,1.13559 9.74046,4.37104 10.86632,20.1527 0.73769,10.33993 -1.08052,23.67507 -4.0405,29.63364 -7.39706,14.89054 -21.01529,29.88391 -27.14313,29.88391 -2.7956,0 -5.08295,5.15944 -5.08295,11.46536 0,6.30601 -2.22267,12.20632 -4.93928,13.11186 -3.73833,1.24613 -3.71328,3.12353 0.1034,7.72206 3.90513,4.70548 3.86821,9.63326 -0.16392,21.85045 -2.86335,8.67611 -4.82729,17.66321 -4.36437,19.97128 2.05909,10.26472 -1.0071,14.29306 -12.86093,16.89658 -6.98507,1.53419 -12.70013,4.89653 -12.70013,7.47192 0,2.57541 -4.28631,9.35291 -9.5251,15.0612 -6.61636,7.20924 -7.90912,10.95544 -4.23336,12.26741 2.91043,1.0388 5.29171,4.5436 5.29171,7.78843 0,6.29229 19.98043,21.39258 23.56423,17.80876 1.17326,-1.17324 7.83289,3.19123 14.79927,9.69878 6.96638,6.50757 18.32962,13.07584 25.25168,14.59621 16.21363,3.56108 15.87934,7.83212 -1.4514,18.54307 -29.38793,18.16274 -30.08616,20.69495 -15.42489,55.93801 7.16795,17.23052 14.1118,42.01198 15.43072,55.06996 2.37211,23.48406 2.25757,23.79077 -10.5469,28.25443 -7.11975,2.48196 -17.18283,3.40446 -22.36242,2.04999 -7.26024,-1.89863 -8.63864,-1.09785 -6.01767,3.49587 2.75075,4.82114 2.31147,4.94846 -2.3014,0.66685 -8.39959,-7.79649 -20.93247,-6.53281 -20.99365,2.11669 -0.0304,4.07464 -6.69639,11.71222 -14.81681,16.97242 -12.68773,8.2187 -14.76453,11.87671 -14.76453,26.00561 0,26.14902 -17.7299,25.16652 -32.8319,-1.8193 -5.21756,-9.3233 -13.71638,-4.5327 -13.79302,7.77492 -0.16257,26.085 -14.38627,38.6769 -28.14602,24.9172 z m -4.20237,-41.22482 c -1.37876,-3.5929 -3.41477,-5.62468 -4.52442,-4.515 -1.10969,1.1097 -0.76191,4.0494 0.77281,6.5327 4.17431,6.7541 6.61417,5.442 3.75161,-2.0177 z m 78.97331,-33.68437 c 0,-3.49255 -2.85752,-6.35007 -6.35007,-6.35007 -6.6107,0 -8.39887,5.00683 -3.52778,9.87785 4.87102,4.87109 9.87785,3.08292 9.87785,-3.52778 z m 59.2249,-35.98371 c 1.96362,0 4.53108,2.38129 5.70545,5.29172 1.45204,3.59851 2.21333,3.25987 2.37931,-1.05834 0.13416,-3.49255 -5.09108,-22.11645 -11.61181,-41.38645 l -11.85581,-35.03633 -19.43005,14.83595 -19.43004,14.83596 7.60639,20.0384 c 4.18355,11.02107 10.2064,20.73846 13.3842,21.59415 3.17778,0.85564 8.63531,2.65973 12.12784,4.00915 3.49255,1.34932 7.77885,2.15091 9.52511,1.78126 1.74629,-0.36957 3.39602,1.7092 3.6661,4.61963 0.26992,2.91046 1.3623,1.95795 2.42711,-2.11669 1.06479,-4.07461 3.54259,-7.40841 5.5062,-7.40841 z m -108.26478,-2.71547 c 2.22961,-5.81021 1.61014,-6.07207 -3.78043,-1.59833 -7.34593,6.0966 -8.11047,8.54718 -2.66653,8.54718 2.07927,0 4.98042,-3.12698 6.44696,-6.94885 z m 33.56143,-4.87781 c -2.67681,-10.23604 -7.74409,-12.05535 -12.43542,-4.46466 -1.65728,2.68159 0.47247,7.42446 4.73282,10.53971 9.50789,6.95232 10.8355,5.90523 7.7026,-6.07505 z m -32.4302,-60.93448 c -1.3514,-3.37712 -2.35454,-2.37402 -2.55764,2.55766 -0.1839,4.46265 0.8167,6.963 2.22344,5.55629 1.40674,-1.40674 1.5571,-5.05803 0.33393,-8.11395 z m -2.89187,-16.05913 c 0,-2.284 5.23883,-5.39146 11.64178,-6.90553 6.403,-1.51403 21.34287,-10.12288 33.19971,-19.13083 11.8569,-9.00791 23.28698,-16.42042 25.40026,-16.47219 2.11329,-0.0514 8.45107,-3.63696 14.08389,-7.96702 l 10.24156,-7.87293 -14.47494,-12.70925 c -7.96118,-6.99003 -20.69291,-25.20321 -28.2927,-40.47368 -7.59975,-15.27047 -16.72231,-30.66905 -20.27232,-34.21902 -7.81847,-7.81851 -31.03177,-4.72784 -38.93565,5.18399 -3.20199,4.0154 -5.29173,4.64472 -5.29173,1.59351 0,-6.86586 -13.50934,-6.36301 -23.40251,0.87106 -7.91739,5.78935 -7.88155,6.38964 1.70627,28.57528 16.07216,37.19009 19.32711,43.06628 24.87128,44.90035 2.9335,0.97043 5.32059,-1.70822 5.35655,-6.01068 0.0338,-4.26863 2.12037,-10.6187 4.63273,-14.11123 3.94886,-5.48954 4.27175,-5.41602 2.38268,0.54244 -1.2019,3.7909 -0.22419,8.85327 2.17179,11.24961 5.33233,5.33233 -11.26951,15.47737 -18.25896,11.15769 -3.08261,-1.9052 -3.82541,1.17027 -2.2532,9.32928 1.28988,6.69428 3.57739,22.1728 5.0833,34.39666 1.50586,12.22389 4.46421,22.22522 6.57409,22.22522 2.10988,0 3.83612,-1.86875 3.83612,-4.15273 z m 0.67179,-43.72164 c -3.44258,-4.14806 -2.38966,-7.43171 4.18942,-13.06488 5.51117,-4.7188 8.03483,-5.4152 6.76866,-1.86776 -1.11047,3.11102 -0.30448,8.99023 1.79125,13.06484 4.63047,9.00307 -5.58545,10.49975 -12.74933,1.8678 z m -7.19593,-66.70844 c -1.53472,-2.48326 -1.8825,-5.42296 -0.77281,-6.53267 1.10965,-1.10968 3.14566,0.92209 4.52443,4.51506 2.86255,7.45968 0.42289,8.77178 -3.75162,2.01761 z m -4.05931,-16.65187 c -1.439,-2.32835 -0.59893,-4.23336 1.86682,-4.23336 2.4658,0 4.48325,1.90501 4.48325,4.23336 0,2.32836 -0.84007,4.23338 -1.86685,4.23338 -1.02675,0 -3.0442,-1.90502 -4.48322,-4.23338 z m 129.96467,79.58748 c -2.71644,-2.71644 -6.34427,-3.53358 -8.0619,-1.81595 -1.71767,1.71767 -0.37593,4.82084 2.98184,6.89601 7.90623,4.88631 11.47633,1.31621 5.08006,-5.08006 z m -39.08169,-75.82539 c 0.0741,-1.4234 -4.62793,-1.67758 -10.44882,-0.56484 -12.06587,2.30651 -12.61235,3.45492 -5.34573,11.23385 4.32873,4.6339 6.14208,4.41925 10.44882,-1.23702 2.8661,-3.76417 5.27163,-8.00863 5.34573,-9.43199 z M 600.42814,699.37554 c 2.79393,-4.30115 75.56298,-25.64072 87.43203,-25.63947 10.26692,10e-4 15.12416,-8.52152 16.28521,-28.57432 0.74623,-12.88788 -0.0819,-13.75847 -13.08889,-13.75847 -7.637,0 -15.18853,2.1084 -16.7812,4.68534 -1.9164,3.10079 -3.79601,3.22857 -5.55784,0.37806 -3.00587,-4.86365 -24.32528,-1.21058 -57.66348,9.88059 -11.64178,3.87304 -23.54813,7.7504 -26.4586,8.61628 -2.91043,0.86595 -5.29171,5.24041 -5.29171,9.72112 0,4.48064 -2.85754,9.24318 -6.35007,10.58345 -7.0203,2.69378 -8.84657,19.63582 -2.11669,19.63582 2.32836,0 4.23338,3.06402 4.23338,6.80899 0,5.30809 2.55691,6.16723 11.59938,3.89772 6.37963,-1.6012 12.57096,-4.40698 13.75848,-6.23511 z m 143.66441,-10.44476 c 3.09544,-3.72977 3.40929,-6.92991 0.83556,-8.52057 -5.48686,-3.39107 -26.27589,6.26458 -23.42378,10.8794 3.49773,5.65935 17.11379,4.23748 22.58822,-2.35883 z m 34.17981,-1.99985 c 0,-4.38517 -3.63102,-8.92253 -8.06891,-10.08305 -5.96833,-1.56076 -8.57064,0.5148 -9.99639,7.97301 -1.59031,8.31928 -0.17883,10.08305 8.06891,10.08305 6.96779,0 9.99639,-2.41557 9.99639,-7.97301 z m -39.73362,-17.1445 c 11.65363,-6.24599 17.78689,-7.22694 25.89983,-4.14238 7.2514,2.75694 12.47017,2.51464 16.41882,-0.76242 8.61675,-7.15129 2.534,-13.04249 -11.90287,-11.52812 -13.77828,1.44524 -17.44757,-6.30153 -3.99207,-8.42828 9.37177,-1.48124 25.92824,-17.75531 18.06345,-17.75531 -2.76403,0 -11.63183,2.76032 -19.70634,6.13402 -8.07443,3.37376 -14.68084,4.45462 -14.68084,2.40198 0,-2.05265 3.55878,-4.86161 7.90845,-6.24214 4.34961,-1.38051 11.31243,-6.27142 15.4729,-10.86869 7.29474,-8.06059 7.25952,-8.35869 -0.98743,-8.35869 -4.70358,0 -13.39566,3.81005 -19.31571,8.46676 -15.17597,11.93745 -16.9141,10.78441 -13.57116,-9.00253 2.08594,-12.34632 1.57435,-16.61815 -1.74455,-14.56699 -2.58281,1.59629 -4.696,5.24461 -4.696,8.10743 0,2.86279 -3.38225,11.83914 -7.51605,19.94741 -5.0598,9.92445 -6.99567,21.28472 -5.92378,34.76211 0.8757,11.01092 2.35985,20.01985 3.298,20.01985 0.93815,0 8.57706,-3.6828 16.97535,-8.18401 z m -341.27028,-1.17386 c 0,-2.04242 2.38128,-3.31958 5.29171,-2.83826 5.827,0.96375 28.24696,-4.44969 34.92536,-8.43292 2.32836,-1.38868 5.18589,-2.63996 6.35007,-2.78069 16.79516,-2.02964 33.86702,-7.52365 33.86702,-10.89894 0,-2.3603 1.93242,-3.0971 4.2943,-1.63741 5.31846,3.28703 46.33975,-4.98136 66.49574,-13.40308 14.72693,-6.15329 14.81869,-6.34501 5.99196,-12.52746 -7.10479,-4.97642 -12.26507,-5.36179 -24.88112,-1.85822 -8.75445,2.43117 -21.9527,4.43099 -29.32943,4.44393 -16.74098,0.0304 -27.48694,3.96182 -24.414,8.93399 3.3708,5.45403 -4.04724,4.67337 -9.74635,-1.02568 -3.59836,-3.59837 -9.42972,-3.53412 -23.0719,0.25435 -37.62727,10.44882 -45.77336,12.05388 -45.77336,9.01868 0,-3.16751 20.32353,-9.85855 45.80747,-15.08094 10.08953,-2.06768 13.3754,-4.65733 11.64179,-9.17508 -1.32845,-3.4619 -2.41536,-7.85722 -2.41536,-9.76735 0,-6.60949 -23.18025,-11.30802 -38.1004,-7.72276 -8.14924,1.95825 -37.67705,3.77136 -65.61733,4.02915 -38.11225,0.35178 -53.71837,2.15431 -62.48286,7.21729 -6.42528,3.7117 -11.05826,8.62082 -10.2955,10.90907 2.38993,7.16975 29.29307,11.77811 59.01988,10.10982 15.7164,-0.88203 28.57529,-0.47089 28.57529,0.91361 0,1.38454 -5.71505,6.7426 -12.70012,11.90692 -6.98508,5.16431 -12.70014,13.10634 -12.70014,17.64898 0,9.89391 8.82795,12.37186 53.97556,15.15057 2.91046,0.17916 5.29172,-1.34529 5.29172,-3.38764 z m 132.13628,-3.67677 c 12.31008,-4.84071 25.44022,-11.55421 29.17813,-14.91889 3.73789,-3.3647 9.73652,-4.98929 13.33029,-3.61029 8.1185,3.11537 12.28042,-2.85785 7.44391,-10.6835 -2.98948,-4.83715 -6.63372,-4.95688 -20.88756,-0.68631 -9.49645,2.8452 -17.26625,6.52539 -17.26625,8.1782 0,1.65278 -4.28627,3.38153 -9.5251,3.84161 -41.27285,3.62458 -44.2571,5.08737 -36.31704,17.80141 6.80157,10.89107 6.54652,10.89049 34.04362,0.0778 z m 89.29969,-33.30963 c 9.76241,-2.20576 24.92392,-5.15528 33.69236,-6.55453 l 15.94253,-2.54406 -13.82584,-16.65271 c -14.65426,-17.6505 -22.85417,-19.85853 -45.03384,-12.12668 -13.20343,4.60276 -26.85063,20.72159 -17.54413,20.72159 2.64657,0 3.38189,4.30735 1.80667,10.58345 -3.00705,11.98106 -1.1441,12.47155 24.96225,6.57294 z m 100.30065,-13.40349 c 0,-2.06408 -6.1913,-3.77888 -13.75847,-3.81068 -7.56714,-0.0338 -18.04475,-1.20652 -23.28357,-2.61046 -6.87937,-1.84359 -9.5251,-0.72978 -9.5251,4.01002 0,4.01222 4.52425,7.08315 11.64178,7.90212 16.36069,1.88253 34.92536,-1.03626 34.92536,-5.491 z M 528.50314,603.27842 c 5.31118,-1.76771 5.06873,-3.05674 -1.48206,-7.87936 -5.70782,-4.20201 -16.04173,-5.10938 -38.1004,-3.34548 -16.64753,1.33121 -30.87651,2.92386 -31.61993,3.53927 -0.74341,0.61543 0.91407,4.74697 3.6833,9.18121 4.54192,7.27274 7.78362,7.69777 33.10199,4.34009 15.43686,-2.0473 30.92455,-4.67331 34.4171,-5.83573 z m 48.68383,6.95798 c -1.43902,-2.32835 -4.88525,-4.20421 -7.65828,-4.16856 -3.02944,0.038 -2.50729,1.70281 1.30821,4.16856 8.13283,5.25586 9.59833,5.25586 6.35007,0 z m 171.79045,-28.81517 c -2.51462,-0.83821 -4.57208,-4.00061 -4.57208,-7.02754 0,-10.42102 -38.39821,-12.05046 -44.67411,-1.89577 -1.19029,1.92595 -4.768,2.50253 -7.95044,1.28129 -3.18249,-1.22121 -6.88606,-0.44102 -8.23017,1.73386 -1.34412,2.17479 -7.22817,3.03966 -13.07568,1.92181 -7.25444,-1.38675 -11.4714,0.1555 -13.27479,4.85507 -2.97282,7.74702 5.70264,20.63969 11.48411,17.06655 2.06452,-1.27595 3.75889,-0.77871 3.7653,1.10493 0.007,1.88372 11.09003,3.99036 24.63039,4.68148 22.99648,1.17373 24.95163,0.52615 29.66866,-9.82655 6.76242,-14.84199 19.15551,-12.34507 21.7037,4.3728 l 1.93032,12.66393 1.58346,-14.70391 c 0.87817,-8.15433 -0.45309,-15.38273 -2.98867,-16.22795 z m 63.70196,17.43911 c 5.11452,-6.28762 4.88175,-6.7944 -1.9446,-4.23338 -4.26506,1.60015 -9.50383,2.90932 -11.64179,2.90932 -2.13789,0 -3.88713,1.90501 -3.88713,4.23338 0,6.75164 11.12118,4.9 17.47352,-2.90932 z m -32.2756,-8.90912 c 0.96795,-13.17055 -12.21837,-10.63621 -14.117,2.71318 -1.06525,7.48975 0.37678,9.51369 6.00094,8.4235 4.18915,-0.81195 7.71256,-5.64678 8.11606,-11.13668 z m -353.50168,-3.8005 c 12.7581,-4.13628 14.93365,-16.96862 3.49246,-20.59995 -4.52311,-1.43559 -18.11317,-3.24937 -30.20006,-4.03068 -12.08693,-0.78132 -43.88397,-4.28867 -70.66006,-7.79425 -45.8212,-5.99898 -79.94875,-4.67276 -88.01038,3.41999 -4.96759,4.98682 15.54972,18.76419 32.22019,21.63594 8.56521,1.47548 24.14568,5.21329 34.62329,8.30629 20.28232,5.98734 99.09844,5.36409 118.53456,-0.93734 z m 73.23497,-3.99326 c 5.99989,-5.99987 -18.25805,-18.08094 -41.77642,-20.80572 -24.67113,-2.85838 -24.97946,-2.76555 -17.70008,5.3293 4.0746,4.53108 7.40841,10.46962 7.40841,13.19674 0,5.2399 47.04798,7.29975 52.06809,2.27968 z m 322.75982,-1.83633 c 3.89616,-6.30414 -0.62116,-9.73166 -8.72654,-6.6213 -3.74055,1.43538 -5.61529,4.52822 -4.16615,6.87307 3.43147,5.55221 9.37739,5.4361 12.89269,-0.25197 z m -206.01386,-13.9881 c -5.21453,-11.44467 -12.17911,-14.97424 -12.17911,-6.17215 0,5.52596 13.15126,21.40185 15.65495,18.89823 0.87753,-0.87756 -0.68658,-6.60435 -3.47584,-12.72608 z m 29.1282,4.74463 c 10.10893,-12.6056 10.9928,-103.91588 0.90554,-93.5527 -5.91574,6.0776 -25.27935,61.14343 -25.27935,71.88896 0,20.28631 14.87555,33.50786 24.37381,21.66374 z m 115.32761,-3.17502 c 0,-2.32837 -0.84005,-4.23338 -1.86683,-4.23338 -1.02675,0 -3.04422,1.90501 -4.48322,4.23338 -1.43902,2.32834 -0.59895,4.23338 1.86682,4.23338 2.46578,0 4.48323,-1.90504 4.48323,-4.23338 z m 28.15962,0.0578 c 2.8411,-0.0338 6.07761,-11.10005 7.75503,-26.5164 1.58343,-14.55221 5.4272,-36.56538 8.54174,-48.91811 l 5.66274,-22.45955 -11.02359,-4.19119 c -20.58175,-7.82514 -28.21538,-3.61194 -31.45347,17.35993 -1.61779,10.47762 -5.26991,30.00316 -8.11593,43.39018 -2.84598,13.38699 -3.6428,25.76961 -1.77073,27.51695 1.87207,1.74731 4.25421,0.79571 5.29365,-2.11476 1.03941,-2.91043 3.58903,-5.29171 5.6657,-5.29171 2.12049,0 1.96583,4.76065 -0.35265,10.85904 -5.72613,15.06096 -5.39096,15.86701 5.3965,12.97608 5.23879,-1.40391 11.71935,-2.57867 14.40115,-2.61046 z m -117.06052,-4.33739 c 0,-2.35362 10.4776,-9.41804 23.28357,-15.69868 12.80597,-6.28064 23.28357,-13.87999 23.28357,-16.88752 0,-6.9532 -1.08724,-6.89258 -27.88546,1.55485 -15.58908,4.91399 -22.99322,9.68125 -24.65616,15.87514 -3.54614,13.20799 -2.98822,19.43562 1.7411,19.43562 2.32836,0 4.23338,-1.92571 4.23338,-4.27941 z m 148.16818,-11.34311 c 0,-8.33294 -10.21144,-4.64406 -11.94933,4.31669 -0.95251,4.91122 0.64906,6.26956 5.29173,4.48796 3.6617,-1.40507 6.6576,-5.36718 6.6576,-8.80465 z m -88.94649,-1.05066 c 9.53634,-1.61776 15.28632,-5.1804 16.22467,-10.05267 1.37588,-7.14445 0.58837,-7.17782 -14.77127,-0.62546 -8.92356,3.80679 -20.51091,8.61342 -25.74973,10.68148 -5.23878,2.0681 -9.5251,4.88817 -9.5251,6.2669 0,1.37868 4.28632,1.09573 9.5251,-0.62885 5.23882,-1.72458 16.17217,-4.26321 24.29633,-5.6414 z m -313.22429,-4.14295 c 0,-6.32216 -4.72431,-9.12908 -21.37526,-12.70014 -11.75641,-2.52126 -25.56777,-4.66774 -30.692,-4.76992 -5.12417,-0.10221 -16.93677,-3.15929 -26.25021,-6.79349 -21.99921,-8.58434 -67.94279,-16.92672 -86.78422,-15.75819 -8.14925,0.50544 -19.10313,1.06553 -24.34192,1.24476 -14.05371,0.48075 -11.57184,11.08998 4.36327,18.65168 13.93651,6.61332 61.28587,16.50353 77.12923,16.11054 4.65673,-0.1155 22.75441,2.39473 40.21709,5.57834 17.46267,3.18353 39.84666,5.96022 49.74216,6.17037 15.04327,0.3197 17.99186,-0.94806 17.99186,-7.73395 z m 43.45033,0.90263 c -5.20678,-1.00484 -14.73188,-1.03088 -21.16688,-0.0577 -6.43502,0.97303 -2.17491,1.79518 9.46688,1.82699 11.64178,0.0304 16.90678,-0.76439 11.7,-1.76921 z m 145.15547,-4.49324 c 4.29384,-2.99835 18.82966,-31.28473 18.82966,-36.64198 0,-1.44019 -8.99257,-1.77849 -19.98357,-0.75171 -21.74699,2.03154 -45.24789,-5.52045 -54.83189,-17.6203 -13.36006,-16.8671 -31.2941,-56.97814 -28.87847,-64.58914 2.30875,-7.27418 4.33326,-6.61947 22.42393,7.25177 29.29395,22.46149 49.74858,30.51917 71.95385,28.34467 10.40105,-1.01851 20.56219,-2.8724 22.58033,-4.11962 7.26689,-4.4912 3.53362,-19.02899 -5.85578,-22.80309 -11.77111,-4.73139 -7.39472,-5.30073 38.85627,-5.05486 29.86333,0.15887 37.80128,-1.29572 48.68383,-8.92007 9.27746,-6.49992 11.33807,-7.03472 7.19254,-1.86675 -9.17324,11.43568 1.34963,8.43218 13.68895,-3.90717 15.80302,-15.80302 28.59693,-73.04979 18.15469,-81.23368 -8.61341,-6.75052 -45.88002,-9.44844 -61.67083,-4.46466 -46.40166,14.64495 -51.77876,17.55064 -62.52266,33.78574 -6.00397,9.07259 -12.17133,16.49563 -13.70524,16.49563 -4.85078,0 -25.63083,-46.12233 -21.83656,-48.46732 4.53119,-2.80043 10.06747,4.30449 17.01796,21.83976 l 5.38648,13.58954 13.70169,-13.58954 c 7.53592,-7.47422 18.1266,-16.57632 23.53475,-20.22688 9.77666,-6.59925 9.78818,-6.71341 2.00676,-19.88626 -7.45735,-12.62427 -8.33829,-12.96129 -18.68663,-7.14821 -9.8661,5.54221 -47.07718,22.62746 -57.42749,26.36753 -2.32835,0.84133 1.11166,-3.36231 7.64447,-9.34147 6.53281,-5.97915 14.70505,-10.87118 18.16051,-10.87118 10.38975,0 40.30022,-16.95259 37.60495,-21.31366 -1.50376,-2.43318 -7.40685,-1.52147 -14.75609,2.27897 -6.73731,3.48401 -16.3997,6.33457 -21.47189,6.33457 -5.07223,0 -16.60247,6.66756 -25.6227,14.81681 -9.43244,8.52165 -20.85037,14.81682 -26.87412,14.81682 -6.55638,0 -13.12025,4.03925 -17.54995,10.79983 -16.06211,24.51385 -53.71225,28.96028 -84.63615,9.99543 -15.67091,-9.6106 -35.48402,-10.78196 -35.48402,-2.09786 0,3.29852 -1.77535,6.63232 -3.9452,7.40842 -7.50921,2.68591 1.92087,30.19999 13.24947,38.65804 6.27486,4.68482 20.75176,9.30056 32.80242,10.45847 25.23834,2.42508 31.02926,7.58604 12.96416,11.55376 -7.0054,1.53869 -12.73709,4.75501 -12.73709,7.14747 0,2.3925 2.7605,3.29066 6.13448,1.99595 4.13597,-1.58714 5.35386,-0.3197 3.73833,3.89017 -2.44763,6.37845 2.16672,11.32018 77.76625,83.28387 37.68773,35.87516 44.95999,40.3939 54.3996,33.80219 z M 467.819,382.63614 c -5.93232,-5.93232 -9.1874,-6.28501 -20.07566,-2.17517 -10.41776,3.93225 -12.11406,3.84335 -8.55226,-0.44837 3.13008,-3.7715 2.97162,-6.82499 -0.53626,-10.33287 -3.81684,-3.81684 -2.21625,-4.97933 6.85595,-4.97933 11.88451,0 36.42523,11.85521 36.42523,17.59642 0,6.82313 -7.454,7.0023 -14.117,0.33932 z m 175.95546,-61.06325 c 2.61653,-7.84963 11.72998,-9.15155 11.72998,-1.67574 0,3.6866 -3.01628,6.70286 -6.70283,6.70286 -3.6866,0 -5.94878,-2.26221 -5.02715,-5.02712 z m -191.4721,210.9957 c -5.8209,-3.06642 -10.11836,-7.76743 -9.54993,-10.44655 1.06948,-5.04053 -18.73422,-12.01409 -22.74054,-8.00772 -1.24439,1.24434 -0.20727,6.10267 2.30454,10.7962 4.3345,8.09906 13.08074,11.56438 32.10262,12.71942 7.18217,0.43608 6.861,-0.33189 -2.11669,-5.06135 z m 295.27802,-10.35314 c 5.49011,-6.9841 7.17401,-17.81362 2.76984,-17.81362 -1.38702,0 -8.05459,3.26824 -14.81681,7.26282 -15.16369,8.95742 -17.29409,24.42638 -2.76985,20.11192 5.23882,-1.55618 11.90639,-5.85869 14.81682,-9.56112 z m -342.7837,-6.86103 c -3.48528,-2.53138 -32.79898,-8.96967 -65.1415,-14.30728 -61.00072,-10.0672 -90.08931,-17.81873 -116.78311,-31.12027 -17.05719,-8.49961 -23.60234,-4.93316 -16.22935,8.84342 5.00869,9.35888 24.69827,15.7268 58.71513,18.98959 30.80189,2.95437 52.14217,7.00721 61.01188,11.58701 13.68938,7.06846 81.40508,19.08447 83.12303,14.75 0.90244,-2.27695 -1.21075,-6.21107 -4.69608,-8.74247 z m 317.997,-6.49562 c 28.22639,-14.19191 42.89106,-26.92248 37.3712,-32.44233 -2.93691,-2.93692 -33.71918,8.80004 -35.54268,13.55205 -1.0618,2.76701 -5.19754,4.17656 -9.19053,3.13239 -3.99296,-1.04418 -16.25253,1.95616 -27.24354,6.66744 -14.47211,6.20352 -19.98357,10.94258 -19.98357,17.18314 0,13.38171 16.84566,10.88442 54.58912,-8.09269 z m 104.94801,-9.42828 c 5.38886,-5.06261 9.79793,-10.73678 9.79793,-12.60939 0,-6.58931 -20.47483,6.01034 -22.52846,13.8634 -2.71397,10.37823 0.70728,10.04126 12.73053,-1.25401 z m -94.7947,-23.67657 c 14.24784,-4.65079 19.60682,-8.40901 17.99183,-12.61766 -1.26506,-3.29673 -2.3001,-14.62989 -2.3001,-25.18484 l 0,-19.19082 -10.43453,6.83695 c -5.73897,3.76032 -13.35905,6.83693 -16.9335,6.83693 -3.57444,0 -6.49899,2.85754 -6.49899,6.35007 0,8.39953 2.68857,8.02662 17.33836,-2.40492 6.7624,-4.81533 12.29528,-7.03913 12.29528,-4.94196 0,5.96691 -29.31454,27.59817 -56.08215,41.38333 -22.60193,11.63978 -28.18694,17.8681 -21.77354,24.2815 1.41815,1.4181 12.37199,-1.31481 24.34192,-6.07324 11.96992,-4.75842 30.89484,-11.63237 42.05542,-15.27534 z m -128.24307,13.58128 c 0,-4.05104 -2.04361,-5.4461 -5.29173,-3.61229 -4.23337,2.39006 -4.23337,1.84738 0,-2.71355 7.61673,-8.20591 6.53027,-12.47448 -3.17503,-12.47448 -8.55968,0 -10.59608,6.45881 -5.89713,18.70394 3.31632,8.6422 14.36389,8.71634 14.36389,0.0965 z m 20.3897,-4.71537 c -1.57286,-13.28647 -9.97642,-17.77934 -12.81162,-6.84964 -2.76244,10.64917 0.49487,18.16495 7.87273,18.16495 4.31715,0 5.86001,-3.53471 4.93889,-11.31531 z M 572.35,468.09113 c -8.28052,-12.63761 -12.36168,-7.62251 -7.98563,9.81306 2.21681,8.83238 3.65133,9.92673 6.69859,5.11007 3.12542,-4.94025 3.98551,-4.48678 4.43356,2.33746 0.44624,6.79643 0.9283,7.05478 2.4436,1.30937 1.0382,-3.93657 -1.47734,-12.29305 -5.59012,-18.56996 z m -239.72873,12.58623 c -1.40674,-1.40669 -5.058,-1.55707 -8.11399,-0.33393 -3.37708,1.3514 -2.37399,2.35454 2.55768,2.55764 4.46268,0.1839 6.96301,-0.8167 5.55631,-2.22344 z m 517.8979,-21.94741 c 10.35869,-8.86936 10.41901,-13.5953 0.17339,-13.5953 -4.40763,0 -9.23262,3.17608 -10.72223,7.05799 -1.65037,4.30069 -4.23124,5.53507 -6.60657,3.15972 -4.59206,-4.59203 9.31167,-103.46621 18.94748,-134.74198 3.52569,-11.44356 5.93063,-21.26409 5.34437,-21.82336 -0.58623,-0.55928 -19.14593,-1.67396 -41.24375,-2.47708 l -40.17786,-1.46016 -1.21785,25.40026 c -0.66985,13.97013 -4.0213,39.878 -7.44769,57.57299 -3.4264,17.69502 -6.22979,41.984 -6.22979,53.97557 l 0,21.80279 28.57531,0.0647 c 15.71643,0.034 31.43281,1.91148 34.92535,4.16855 4.23338,2.73581 4.58614,4.12535 1.05834,4.16855 -2.91043,0.034 -5.29172,4.09392 -5.29172,9.01845 0,8.63894 0.38186,8.70345 10.86284,1.83604 5.97459,-3.91465 14.54714,-10.2722 19.05021,-14.12786 z m -163.55265,4.29765 c 23.76291,-13.13749 29.45972,-22.12633 14.02283,-22.12633 -11.50072,0 -40.85929,20.4133 -41.09727,28.57529 -0.21811,7.48563 3.45037,6.61175 27.07444,-6.44896 z M 545.0975,446.89034 c -13.24564,-14.09934 -14.53878,-10.16406 -3.05551,9.2986 7.42807,12.58965 9.99239,14.57471 11.13858,8.6226 0.81901,-4.25265 -2.81835,-12.31715 -8.08307,-17.9212 z m 124.09963,0.86612 c 4.03842,-3.06663 6.30937,-6.60892 5.04657,-7.87168 -4.19372,-4.19376 -18.73926,1.9075 -18.73926,7.8603 0,7.25236 4.15246,7.2558 13.69269,0.0135 z M 862.93988,410.5297 c 0,-16.79475 -14.28425,-5.269 -19.30687,15.57843 l -3.05401,12.67645 11.18044,-10.26302 c 6.14924,-5.64469 11.18044,-13.74104 11.18044,-17.99186 z m 4.13924,-34.64036 c 0.0514,-1.99538 -2.91917,-2.47162 -6.60218,-1.05836 -3.68293,1.41332 -7.49297,2.56963 -8.46674,2.56963 -0.97372,0 -1.72807,5.23883 -1.67629,11.64179 l 0.0941,11.64178 8.27862,-10.58343 c 4.55319,-5.82089 8.32082,-12.21603 8.3726,-14.21141 z m -454.04113,1.51127 c 0.35076,-4.65671 -1.14885,-8.46674 -3.33251,-8.46674 -4.55465,0 -5.36001,9.89929 -1.14803,14.11126 3.83246,3.83246 3.75975,3.92407 4.48054,-5.64452 z m 20.87393,-50.35473 c 6.62223,-2.69154 19.66045,-9.59831 28.97387,-15.34832 40.33263,-24.90096 136.81582,-52.83149 182.50122,-52.83149 10.22129,0 18.50432,-1.42875 18.40671,-3.17503 -0.73573,-13.16462 -36.56953,-57.02166 -70.75144,-86.59288 -17.78201,-15.38341 -56.14948,-26.25379 -80.75857,-22.88072 -34.11878,4.67648 -64.79392,16.76126 -82.556,32.52375 l -17.32781,15.37707 11.48448,13.64851 c 12.29595,14.61291 15.20641,36.23459 6.95333,51.65569 -2.49214,4.6566 -13.1671,12.16833 -23.72212,16.69273 -15.13885,6.48929 -18.57896,9.78251 -16.29257,15.59707 1.59412,4.05398 4.74487,18.66181 7.00166,32.46181 5.35875,32.76796 7.34996,35.22146 16.44594,20.26432 4.18054,-6.87432 13.01912,-14.70095 19.6413,-17.39251 z m 426.91129,24.95447 c 1.439,-2.32835 0.59893,-4.23336 -1.86685,-4.23336 -2.46577,0 -4.48322,1.90501 -4.48322,4.23336 0,2.32836 0.84007,4.23338 1.86682,4.23338 1.02678,0 3.04423,-1.90502 4.48325,-4.23338 z M 508.39459,341.87392 c 10.10785,-7.67295 9.37437,-12.39048 -1.05833,-6.80707 -6.54963,3.50524 -8.46676,3.21942 -8.46676,-1.26219 0,-3.18638 -2.67204,-5.79343 -5.93784,-5.79343 -4.68424,0 -4.98762,2.08541 -1.43715,9.87786 5.16195,11.32925 6.73608,11.7004 16.90008,3.98483 z m -33.46376,-19.73896 c -2.04838,-2.04836 -8.13878,-2.56989 -13.53427,-1.15895 -7.135,1.86586 -8.29989,3.49863 -4.27208,5.98795 3.2067,1.98186 6.82555,1.33904 8.59686,-1.52703 2.07412,-3.35595 4.06404,-2.33063 6.18039,3.18444 2.04845,5.3382 3.74556,6.26141 4.93738,2.68597 0.99881,-2.99646 0.14021,-7.12403 -1.90828,-9.17238 z m 28.17205,-11.19836 c 0,-8.51328 -1.22376,-10.20637 -4.79551,-6.6346 -2.63753,2.63752 -3.64982,7.78106 -2.24955,11.43011 3.87538,10.09904 7.04506,7.94146 7.04506,-4.79551 z m 211.91254,0.55305 c 3.5267,-4.24944 3.43042,-9.87051 -0.37295,-21.76774 -7.30375,-22.84802 -9.54626,-23.89296 -22.4259,-10.44951 -11.13807,11.62559 -11.29681,12.46329 -5.15018,27.17418 4.95596,11.86129 8.18372,14.69718 14.76825,12.9753 4.63437,-1.21192 10.56559,-4.78145 13.18058,-7.93223 z M 697.8382,294.84978 c 0,-3.49255 1.90502,-6.35007 4.23338,-6.35007 2.32835,0 4.23338,2.85752 4.23338,6.35007 0,3.49253 -1.90503,6.35005 -4.23338,6.35005 -2.32836,0 -4.23338,-2.85752 -4.23338,-6.35005 z m 67.56453,9.52509 -0.16935,-17.99185 -6.49918,11.9918 c -6.62158,12.21743 -5.40842,23.99191 2.4718,23.99191 2.40142,0 4.28993,-8.09632 4.19673,-17.99186 z m -211.49933,6.95547 c 0,-0.91505 -2.85754,-1.66375 -6.35007,-1.66375 -3.49253,0 -6.35007,1.84525 -6.35007,4.10052 0,2.25526 2.85754,3.00397 6.35007,1.66375 3.49253,-1.34018 6.35007,-3.18543 6.35007,-4.10052 z m 12.63529,-4.83878 c -0.0338,-1.74626 -1.67557,-5.71604 -3.64425,-8.82171 -2.91757,-4.60263 -4.02577,-4.48346 -5.99358,0.64448 -1.32772,3.46014 -1.27532,7.42988 0.1165,8.82169 3.55993,3.55996 9.59884,3.15122 9.52137,-0.64446 z m 103.12094,-12.88501 c -1.34344,-5.13712 -5.21396,-9.34022 -8.60128,-9.34022 -5.17986,0 -5.10141,1.05729 0.49375,6.65246 3.65886,3.65883 6.65246,8.73888 6.65246,11.28899 0,2.55009 0.87696,3.75962 1.94878,2.6878 1.07182,-1.07186 0.84965,-6.15192 -0.49371,-11.28903 z m 188.93603,-11.32334 c 8.19166,-9.87031 -17.40412,-30.52549 -44.90058,-36.23373 -18.76392,-3.89535 -23.89954,-3.5409 -32.75384,2.26061 -9.36246,6.13451 -10.0205,8.25811 -6.07029,19.58974 4.06019,11.64696 5.89359,12.61936 21.9335,11.63298 9.62667,-0.59201 21.30148,1.12546 25.94407,3.81653 11.81538,6.84887 29.72023,6.31633 35.84714,-1.06613 z M 680.9047,280.03295 c 0,-2.32835 -0.84007,-4.23338 -1.86686,-4.23338 -1.02674,0 -3.04421,1.90503 -4.48321,4.23338 -1.43902,2.32836 -0.59895,4.23338 1.86682,4.23338 2.46578,0 4.48325,-1.90502 4.48325,-4.23338 z M 427.38745,251.23942 c 5.01851,-13.19966 -2.08828,-33.30167 -12.99742,-36.7641 -12.67714,-4.02361 -34.13101,-34.93805 -59.7976,-86.16687 l -24.73074,-49.360906 2.24903,38.100406 c 1.23696,20.9552 4.92983,45.72047 8.20636,55.03391 3.27649,9.31342 6.65848,20.74353 7.51553,25.40026 0.85704,4.65671 5.66314,17.67352 10.68024,28.92624 5.01708,11.25273 9.12197,21.43627 9.12197,22.63007 0,1.19382 3.84817,7.57481 8.55149,14.18003 l 8.55149,12.00943 19.25966,-6.5624 c 13.49789,-4.59918 20.49526,-9.81238 23.38999,-17.42607 z M 547.15113,746.3204 c 8.9592,-10.09045 10.98565,-11.01241 10.98565,-4.9983 0,2.24644 -4.28629,6.33361 -9.52512,9.08273 -9.47405,4.97151 -9.48187,4.94962 -1.46053,-4.08443 z m 19.83001,-16.84393 c -3.13764,-5.86279 -2.65636,-7.76125 1.96771,-7.76125 3.36682,0 6.12143,3.49255 6.12143,7.76125 0,4.26863 -0.8855,7.76116 -1.96777,7.76116 -1.08226,0 -3.83687,-3.49253 -6.12137,-7.76116 z M 452.30236,692.9361 c 0,-1.08226 3.81003,-4.00681 8.46674,-6.49899 6.75773,-3.61661 8.46676,-3.21942 8.46676,1.96778 0,3.67671 -3.67677,6.49898 -8.46676,6.49898 -4.65671,0 -8.46674,-0.8855 -8.46674,-1.96777 z"
       id="path4183"
       inkscape:connector-curvature="0" />
  </g>
</svg>
